<svg xmlns="http://www.w3.org/2000/svg" width="1024" height="1024" viewBox="0 0 1024 1024" fill="none">
  <defs>
    <linearGradient id="g" x1="0.18" y1="0" x2="0.82" y2="1">
      <stop offset="0" stop-color="#3B8AF0"></stop>
      <stop offset="0.55" stop-color="#1A73E8"></stop>
      <stop offset="1" stop-color="#155FC4"></stop>
    </linearGradient>
  </defs>
  <rect x="0" y="0" width="1024" height="1024" rx="230" fill="url(#g)"></rect>
  <g transform="translate(192,192) scale(6.4)">
    <rect x="9" y="7" width="8" height="8" rx="2" fill="#fff" fill-opacity=".5"></rect>
    <rect x="9" y="20" width="8" height="8" rx="2" fill="#fff" fill-opacity=".5"></rect>
    <rect x="9" y="33" width="8" height="8" rx="2" fill="#fff" fill-opacity=".5"></rect>
    <rect x="9" y="46" width="8" height="8" rx="2" fill="#fff" fill-opacity=".5"></rect>
    <rect x="9" y="59" width="8" height="8" rx="2" fill="#fff" fill-opacity=".5"></rect>
    <rect x="9" y="72" width="8" height="8" rx="2" fill="#fff" fill-opacity=".5"></rect>
    <rect x="9" y="85" width="8" height="8" rx="2" fill="#fff" fill-opacity=".5"></rect>
    <rect x="83" y="7" width="8" height="8" rx="2" fill="#fff" fill-opacity=".5"></rect>
    <rect x="83" y="20" width="8" height="8" rx="2" fill="#fff" fill-opacity=".5"></rect>
    <rect x="83" y="33" width="8" height="8" rx="2" fill="#fff" fill-opacity=".5"></rect>
    <rect x="83" y="46" width="8" height="8" rx="2" fill="#fff" fill-opacity=".5"></rect>
    <rect x="83" y="59" width="8" height="8" rx="2" fill="#fff" fill-opacity=".5"></rect>
    <rect x="83" y="72" width="8" height="8" rx="2" fill="#fff" fill-opacity=".5"></rect>
    <rect x="83" y="85" width="8" height="8" rx="2" fill="#fff" fill-opacity=".5"></rect>
    <path d="M25 8 L25 22 Q25 26 29 26 L71 26 Q75 26 75 22 L75 8" stroke="#fff" stroke-width="4" stroke-opacity=".5" fill="none"></path>
    <path d="M25 92 L25 78 Q25 74 29 74 L71 74 Q75 74 75 78 L75 92" stroke="#fff" stroke-width="4" stroke-opacity=".5" fill="none"></path>
    <rect x="25" y="32" width="50" height="36" rx="4" stroke="#fff" stroke-width="4" fill="none"></rect>
    <path d="M36 50 L45 60 L64 38" stroke="#fff" stroke-width="8" stroke-linecap="round" stroke-linejoin="round"></path>
  </g>
</svg>